HIERARCHY
ROOT simHips
{
  OFFSET 6.13146 95.3961 -0.669452
  CHANNELS 6 Xposition Yposition Zposition Zrotation Xrotation Yrotation
  JOINT simSpine
  {
    OFFSET -0.000360269 21.3001 -0.0169217
    CHANNELS 3 Zrotation Xrotation Yrotation
    JOINT simLeftArm
    {
      OFFSET 13.5181 21.3012 -2.3511e-005
      CHANNELS 3 Zrotation Xrotation Yrotation
      JOINT simLeftForeArm
      {
        OFFSET 24.5783 0 -6.3921e-005
        CHANNELS 3 Zrotation Xrotation Yrotation
        JOINT simLeftHand
        {
          OFFSET 24.5783 0 0
          CHANNELS 3 Zrotation Xrotation Yrotation
          End Site
          {
            OFFSET 7.32568 1.52588e-005 0.0169305
          }
        }
      }
    }
    JOINT simHead
    {
      OFFSET 0 27.4458 -0.00488811
      CHANNELS 3 Zrotation Xrotation Yrotation
      End Site
      {
        OFFSET 0 0 0
      }
    }
    JOINT simRightArm
    {
      OFFSET -13.5174 21.3012 -1.52733e-005
      CHANNELS 3 Zrotation Xrotation Yrotation
      JOINT simRightForeArm
      {
        OFFSET -24.5783 -0.000552281 0.000112897
        CHANNELS 3 Zrotation Xrotation Yrotation
        JOINT simRightHand
        {
          OFFSET -24.5783 0 1.19926e-005
          CHANNELS 3 Zrotation Xrotation Yrotation
          End Site
          {
            OFFSET -7.32568 1.52588e-005 0.0169305
          }
        }
      }
    }
  }
  JOINT simRightUpLeg
  {
    OFFSET -8.44614 -9.41038 0.835682
    CHANNELS 3 Zrotation Xrotation Yrotation
    JOINT simRightLeg
    {
      OFFSET -3.23466e-005 -40.9639 0
      CHANNELS 3 Zrotation Xrotation Yrotation
      JOINT simRightFoot
      {
        OFFSET 0 -40.9639 0
        CHANNELS 3 Zrotation Xrotation Yrotation
        End Site
        {
          OFFSET 0.50614 -9.67405 14.6709
        }
      }
    }
  }
  JOINT simLeftUpLeg
  {
    OFFSET 8.44614 -9.41038 0.835681
    CHANNELS 3 Zrotation Xrotation Yrotation
    JOINT simLeftLeg
    {
      OFFSET -0.00018133 -40.964 6.2497e-005
      CHANNELS 3 Zrotation Xrotation Yrotation
      JOINT simLeftFoot
      {
        OFFSET 0 -40.9639 0
        CHANNELS 3 Zrotation Xrotation Yrotation
        End Site
        {
          OFFSET -0.50614 -9.67405 14.6709
        }
      }
    }
  }
}
MOTION
Frames:	25
Frame Time:	0.0333333
2.38626 96.4254 30.8811 4.30077 16.5519 -42.2238 0.702495 15.3829 10.3155 -60.8793 -6.55894 6.0662 2.32853e-005 -4.74357e-006 -60.9336 -42.4407 -41.664 -63.9608 5.44028 -20.3703 10.5099 64.0769 -10.6394 34.6785 0.000432135 -5.44081e-005 100.27 -168.752 -27.7453 -147.116 -19.1639 -9.20064 -37.3473 -0.000402616 20.9708 0.00251201 25.9832 -8.54746 2.6099 41.5306 -46.7293 31.748 0.00316811 50.5957 -0.049628 -14.5048 -10.4351 -5.01055 
2.30242 96.3881 31.0088 4.19266 16.5154 -41.6118 0.664674 15.5913 10.6039 -61.0983 -6.52664 5.58145 2.33403e-005 -4.8412e-006 -60.276 -41.8095 -41.7635 -63.2285 4.57392 -20.053 9.87295 64.0434 -10.2926 35.6358 -0.000195377 -4.25961e-005 98.0235 -167.371 -28.8913 -146.454 -19.2097 -8.75798 -37.8372 -0.000840284 20.955 0.00208032 26.0938 -8.53626 2.58495 41.3137 -46.9977 31.5511 0.00370263 50.771 -0.0507154 -14.5134 -10.4012 -5.34996 
2.16083 96.3672 31.0863 4.05329 16.3041 -40.9308 0.696623 15.7247 10.8144 -61.3443 -6.46774 5.21835 2.33931e-005 -4.93249e-006 -59.6572 -41.3963 -41.8525 -62.6965 3.7811 -19.8885 9.32499 63.965 -9.838 36.7241 -0.0178208 -2.97339e-005 95.5913 -166.679 -29.9935 -146.25 -19.3206 -8.17108 -38.3226 -0.00126559 21.0326 0.0023001 26.1838 -8.62442 2.58589 40.8129 -47.1149 31.0535 0.00400017 50.818 -0.0522131 -14.5678 -10.3234 -5.64599 
1.97193 96.361 31.118 3.9157 15.9582 -40.2161 0.733892 15.7608 11.0816 -61.6333 -6.36711 4.96124 2.34266e-005 -4.98929e-006 -59.2703 -41.6899 -42.1187 -62.7081 3.00986 -19.7424 8.60047 63.7 -9.45891 37.5574 -0.0145106 -1.78033e-005 93.3444 -166.541 -30.7012 -146.014 -19.5005 -7.523 -38.7814 -0.00168801 21.2252 0.00307782 26.2355 -8.80818 2.59348 40.0946 -47.1136 30.3471 0.00397552 50.7328 -0.0540464 -14.661 -10.1939 -5.90645 
1.73567 96.3716 31.1068 3.77834 15.4069 -39.5197 0.663696 15.8527 11.3458 -61.9172 -6.21895 4.68434 2.34486e-005 -5.02607e-006 -59.0188 -41.455 -42.3468 -62.1089 2.41186 -19.5953 7.65929 63.3588 -9.10159 38.2689 -0.000991751 -6.52745e-006 91.2256 -166.912 -31.1928 -146.409 -19.7811 -6.77727 -39.1484 -0.00145441 21.528 0.00432179 26.2377 -9.07728 2.60911 39.1429 -46.8908 29.4728 0.00353587 50.5116 -0.0561351 -14.7876 -10.0185 -6.15789 
1.45225 96.4029 31.0503 3.64114 14.764 -38.8447 0.67418 15.8531 11.6149 -62.2234 -5.94046 4.42538 2.34683e-005 -5.05871e-006 -58.7951 -40.8261 -42.4048 -61.4513 1.71341 -19.181 6.76162 63.0487 -8.89023 39.0785 0.000133916 3.94973e-006 89.2584 -166.857 -31.1916 -146.891 -20.0731 -5.98829 -39.4598 -0.000937019 21.8778 0.00593943 26.1958 -9.40356 2.63397 38.115 -46.4935 28.5604 0.000660229 50.1427 -0.0583871 -14.9369 -9.79226 -6.42582 
1.12247 96.4543 30.9642 3.51834 13.9697 -38.2349 0.655336 15.8073 11.8433 -62.5405 -5.77164 4.18125 2.34954e-005 -5.10317e-006 -58.4896 -40.5232 -42.5037 -61.0763 1.12499 -18.899 5.89425 62.7469 -8.66737 39.8321 0.000740523 1.1368e-005 87.8652 -167.25 -31.5181 -146.906 -20.4065 -5.09455 -39.6645 -0.000384114 22.199 0.00783496 26.1548 -9.7644 2.66885 36.9614 -45.8648 27.6062 0.000162288 49.6412 -0.0630639 -15.1039 -9.53498 -6.70157 
0.736102 96.5364 30.8586 3.33515 12.9312 -37.6674 0.693024 15.7561 11.9244 -62.8601 -5.68391 4.05718 2.3529e-005 -5.15774e-006 -58.1133 -40.7764 -42.7931 -61.2164 0.618875 -18.5394 5.4137 62.4903 -8.36994 40.5257 0.00134513 1.71683e-005 86.775 -168.019 -31.8237 -147.546 -20.7498 -3.93383 -39.7465 0.000214467 22.3996 0.00990638 26.1028 -10.1098 2.71858 35.5947 -44.8926 26.4616 -1.34843e-005 48.9884 -0.0681916 -15.2971 -9.25536 -6.95704 
0.315666 96.6548 30.7348 3.18186 11.7438 -37.2222 0.79639 15.5842 12.0004 -63.2026 -5.68371 4.11191 2.35568e-005 -5.20209e-006 -57.8062 -40.7736 -42.8557 -60.7146 0.240337 -18.1108 5.46042 62.1966 -8.08059 41.1912 0.00193881 2.14112e-005 85.9768 -168.305 -31.7593 -148.188 -21.1388 -2.69538 -39.692 0.000227082 22.5352 0.013691 25.9971 -10.4415 2.76229 34.1153 -43.6429 25.2604 -0.000603069 48.1589 -0.0733113 -15.5128 -8.95054 -7.13445 
-0.15131 96.7998 30.6038 3.05007 10.4006 -36.8552 0.913598 15.2047 12.0131 -63.4833 -5.6889 4.46864 2.35774e-005 -5.23463e-006 -57.5804 -41.1014 -42.8613 -60.9336 -0.0672362 -17.2864 5.34393 62.0072 -7.8005 41.7248 0.00251262 2.32989e-005 85.6214 -167.506 -31.4479 -148.039 -21.5678 -1.31872 -39.559 0.000162951 22.5721 0.0177821 25.8651 -10.7528 2.82353 32.5164 -42.1415 23.9562 -0.000868053 47.183 -0.0784303 -15.7654 -8.63685 -7.21936 
-0.696828 96.9699 30.4706 2.88819 8.88109 -36.5652 0.971948 14.757 11.9936 -63.7106 -5.78369 5.03043 2.35829e-005 -5.24328e-006 -57.5202 -41.476 -42.8933 -61.4629 -0.164066 -16.301 5.02008 61.9057 -7.39631 41.999 0.0030577 2.31858e-005 85.6427 -167.458 -31.5453 -148.009 -21.9882 0.27136 -39.3464 8.99382e-005 22.4682 0.0219812 25.7236 -11.0384 2.92667 30.8621 -40.3193 22.5587 -0.000197497 46.0543 -0.0840163 -16.0766 -8.31611 -7.21548 
-1.29864 97.156 30.3362 2.68819 7.23814 -36.3712 1.10859 14.2138 12.0386 -63.972 -5.81995 5.62478 2.3579e-005 -5.2372e-006 -57.5625 -41.7671 -43.1098 -61.8846 -0.431981 -14.9299 4.65899 61.7503 -6.9229 42.1171 0.00356533 2.23763e-005 85.7951 -168.16 -32.0202 -148.441 -22.3934 2.00733 -39.0467 2.88422e-006 22.26 0.0262278 25.5831 -11.3006 3.0688 29.2568 -38.209 21.1923 0.00121767 44.7805 -0.0897998 -16.43 -7.97692 -7.15717 
-1.90816 97.3518 30.2066 2.50439 5.53391 -36.2524 1.32945 13.5655 12.1034 -64.2587 -5.83247 6.24256 2.35769e-005 -5.23394e-006 -57.5851 -42.1485 -43.3202 -61.9548 -0.979353 -13.4225 4.60431 61.5484 -6.47026 42.2374 0.00402671 2.13948e-005 85.9799 -168.415 -32.5558 -148.772 -22.833 3.79543 -38.7038 -5.54421e-005 21.9746 0.0304815 25.4588 -11.5237 3.23468 27.6866 -35.9386 19.8624 0.00222136 43.379 -0.0951852 -16.8019 -7.61846 -7.01021 
-2.51008 97.5493 30.0925 2.37283 3.78166 -36.155 1.54206 12.7748 12.136 -64.5621 -5.8362 6.91515 2.35832e-005 -5.2437e-006 -57.5173 -42.3736 -43.3151 -61.944 -1.6525 -11.5079 4.33013 61.3422 -6.08594 42.1917 0.004433 1.97973e-005 86.2805 -168.306 -32.6054 -149.252 -23.3477 5.62726 -38.3785 8.09464e-005 21.6232 0.0348371 25.3634 -11.7021 3.42754 26.103 -33.5861 18.5431 0.00300602 41.8752 -0.100452 -17.1754 -7.24302 -6.77725 
-3.1153 97.7592 30.0183 2.22324 1.9957 -36.164 1.77733 11.8653 12.1019 -64.8201 -5.92198 7.76791 2.35809e-005 -5.24016e-006 -57.5419 -42.4541 -43.1478 -61.9142 -2.29085 -9.37622 4.33914 61.1816 -5.64637 42.0381 0.0047753 1.63547e-005 86.928 -168.174 -32.4531 -149.219 -23.8632 7.53287 -37.9903 0.00035782 21.1592 0.0395082 25.2901 -11.828 3.65924 24.6159 -31.0037 17.345 0.00351892 40.1989 -0.105727 -17.5551 -6.84243 -6.49411 
-3.75741 97.9387 29.9111 2.06396 0.385033 -36.2117 2.17476 10.7537 12.1161 -65.0343 -5.90354 8.89047 2.35375e-005 -5.17135e-006 -58.0192 -42.5404 -43.1847 -61.8081 -2.98582 -7.06026 4.31042 61.0487 -5.27382 41.7169 0.00504488 1.21214e-005 87.7236 -167.922 -32.2882 -148.915 -24.2518 9.279 -37.6277 0.000573546 20.7172 0.044557 25.2076 -11.9846 3.89631 23.4828 -28.5777 16.4174 0.00392258 38.5934 -0.110788 -17.961 -6.40546 -6.26434 
-4.41781 98.0908 29.7796 1.85994 -1.13665 -36.2779 2.66971 9.6776 12.1147 -65.2366 -5.80338 10.1021 2.34825e-005 -5.0822e-006 -58.6339 -42.8665 -43.3606 -61.7126 -3.55176 -4.83621 4.21327 60.934 -4.97137 41.3352 0.00523297 7.41809e-006 88.6071 -168.176 -31.9153 -149.205 -24.5708 10.9547 -37.262 0.000704033 20.3224 0.0496696 25.1295 -12.1718 4.13747 22.5679 -26.2192 15.6238 0.00406728 37.0396 -0.115397 -18.3734 -5.95703 -6.05921 
-5.07529 98.2106 29.6157 1.58333 -2.55213 -36.3465 3.27119 8.7162 12.0427 -65.5173 -5.67731 11.1335 2.34475e-005 -5.02433e-006 -59.0307 -42.8929 -43.2539 -61.6019 -4.19471 -2.71187 4.23024 60.7406 -4.77167 41.0467 0.00533074 1.94965e-006 89.634 -168.571 -31.6216 -149.514 -24.8061 12.5352 -36.8886 0.000555579 20.0358 0.0548824 25.0534 -12.4243 4.37259 21.863 -23.9617 14.905 0.00393114 35.5543 -0.119411 -18.7877 -5.50223 -5.85746 
-5.70476 98.2956 29.4227 1.29346 -3.89654 -36.3882 3.87658 7.84255 11.8478 -65.816 -5.53777 12.0741 2.34212e-005 -4.98024e-006 -59.332 -42.8405 -43.1155 -61.6368 -5.00854 -0.602885 4.40679 60.5407 -4.64515 40.7735 0.00532941 -4.35333e-006 90.8174 -168.321 -31.6375 -149.277 -25.0329 14.0193 -36.5286 7.32295e-006 19.8631 0.0601162 24.9896 -12.7449 4.59797 21.2644 -21.8504 14.2117 0.00356036 34.1738 -0.122716 -19.1917 -5.05666 -5.65053 
-6.29972 98.3524 29.2008 0.986364 -5.11233 -36.4598 4.51091 7.04832 11.6035 -66.1297 -5.39406 12.9312 2.34021e-005 -4.94777e-006 -59.5533 -43.6121 -43.1558 -62.2686 -5.70481 1.43348 4.74251 60.2761 -4.49399 40.5414 0.00522019 -1.07933e-005 92.0268 -167.965 -31.3432 -148.424 -25.2142 15.3428 -36.1501 -0.000825976 19.7847 0.0653771 24.9368 -13.1208 4.81074 20.8271 -19.8974 13.6205 0.00312099 32.897 -0.125514 -19.5797 -4.62093 -5.44976 
-6.85063 98.3909 28.9607 0.673255 -6.12665 -36.5331 5.17624 6.30459 11.3018 -66.4758 -5.30141 13.694 2.33839e-005 -4.91675e-006 -59.7642 -44.1078 -43.1926 -62.5477 -6.36904 3.09943 5.02323 60.2959 -4.62979 40.1927 0.0049944 -1.98204e-005 93.7238 -166.623 -30.9215 -146.821 -25.2993 16.4651 -35.8123 -0.0016213 19.7761 0.0703029 24.8877 -13.522 5.00861 20.5429 -18.1618 13.077 0.00222143 31.6799 -0.12714 -19.9463 -4.18982 -5.21296 
-7.3415 98.4153 28.6996 0.378987 -6.99019 -36.6188 5.71508 5.76557 10.9606 -66.777 -5.4291 14.5084 2.33388e-005 -4.83848e-006 -60.2944 -44.3735 -43.0567 -62.5309 -6.84399 4.24669 5.19534 60.2567 -4.95895 39.8025 0.00464325 -2.96718e-005 95.5796 -165.493 -30.362 -145.656 -25.3467 17.3886 -35.479 -0.00245413 19.843 0.0750186 24.8397 -13.9422 5.18218 20.3501 -16.6324 12.5834 0.000846853 30.5432 -0.127358 -20.2802 -3.76325 -4.94252 
-7.74754 98.434 28.4296 0.162002 -7.70004 -36.8134 6.14016 5.33532 10.635 -67.0636 -5.7008 15.2817 2.32894e-005 -4.75084e-006 -60.8847 -44.708 -42.7245 -62.6167 -7.24367 5.23223 5.72969 60.4163 -5.41506 39.3831 0.00415788 -3.92732e-005 97.3939 -164.641 -29.8317 -145.451 -25.4256 18.0488 -35.074 -0.0032662 19.9271 0.079502 24.8031 -14.336 5.3377 20.2086 -15.3014 12.2466 -0.000419378 29.4947 -0.127174 -20.5663 -3.35939 -4.6411 
-8.08835 98.4429 28.1645 -0.0415199 -8.23761 -37.0778 6.60872 4.86924 10.3588 -67.4219 -5.79584 16.0129 2.3254e-005 -4.6868e-006 -61.314 -44.7015 -42.3839 -62.6657 -7.68402 6.19554 6.27456 60.52 -5.92927 38.8084 0.00352947 -4.88746e-005 99.2157 -163.927 -29.4523 -145.152 -25.4607 18.4986 -34.6288 -0.00376166 20.0382 0.0828157 24.7737 -14.7143 5.47532 20.1717 -14.1681 12.0283 -0.000389161 28.5745 -0.1267 -20.803 -3.00398 -4.33773 
-8.37448 98.4377 27.9364 -0.195353 -8.64481 -37.3682 6.94965 4.41411 10.0142 -67.7538 -5.81084 16.6072 2.32505e-005 -4.68038e-006 -61.3569 -44.6799 -41.822 -62.8339 -7.98978 6.9638 6.84052 60.6168 -6.41984 38.0028 0.00274923 -5.8674e-005 101.085 -163.656 -29.0339 -144.882 -25.4965 18.7988 -34.1971 -0.00376637 20.141 0.0845773 24.7564 -15.0581 5.60544 20.1802 -13.2693 11.9012 -0.000856271 27.8732 -0.126093 -21.0101 -2.7337 -4.06676 
